<svg width="75" height="75" viewBox="0 0 75 75" fill="none" xmlns="http://www.w3.org/2000/svg">
<path d="M74.4766 37.2383C74.4766 16.6721 57.8044 -2.52671e-06 37.2383 -1.62774e-06C16.6721 -7.28763e-07 -2.52671e-06 16.6721 -1.62774e-06 37.2383C-7.28763e-07 57.8044 16.6721 74.4766 37.2383 74.4766C57.8044 74.4766 74.4766 57.8044 74.4766 37.2383Z" fill="white"/>
<g clip-path="url(#clip0_226_371)">
<path d="M49.8977 39.6921V49.1682H44.4051V40.3315C44.4051 38.1063 43.6123 36.5909 41.6237 36.5909C41.0033 36.5945 40.3991 36.79 39.8943 37.1507C39.3894 37.5113 39.0085 38.0193 38.8039 38.6051C38.6623 39.0357 38.6016 39.4888 38.6249 39.9415V49.1682H33.1579C33.1579 49.1682 33.2346 34.1995 33.1579 32.6458H38.6568V34.986C38.6419 35.0037 38.629 35.023 38.6185 35.0436H38.6568V34.986C39.1545 34.1234 39.8788 33.4136 40.7512 32.9334C41.6236 32.4532 42.6109 32.2211 43.6059 32.2621C47.2186 32.2621 49.9297 34.6215 49.9297 39.6921H49.8977ZM24.6025 49.1682H30.0951V32.6458H24.6025V49.1682ZM30.2549 27.0445C30.2537 27.6032 30.0869 28.149 29.7755 28.6129C29.4642 29.0768 29.0224 29.4381 28.5059 29.651C27.9893 29.8639 27.4213 29.919 26.8735 29.8092C26.3257 29.6995 25.8227 29.4298 25.4281 29.0343C25.0335 28.6388 24.7649 28.1352 24.6564 27.5871C24.5479 27.0391 24.6042 26.4712 24.8183 25.9551C25.0324 25.4391 25.3946 24.998 25.8593 24.6878C26.3239 24.3775 26.8701 24.2119 27.4288 24.2119C27.8004 24.2119 28.1685 24.2852 28.5118 24.4277C28.8551 24.5701 29.1669 24.7788 29.4294 25.042C29.692 25.3051 29.9 25.6174 30.0417 25.961C30.1833 26.3046 30.2558 26.6728 30.2549 27.0445Z" fill="black"/>
</g>
<defs>
<clipPath id="clip0_226_371">
<rect width="25.2952" height="24.9499" fill="white" transform="translate(24.6025 24.2119)"/>
</clipPath>
</defs>
</svg>
